<mxfile host="app.diagrams.net" agent="Mozilla/5.0 (Macintosh; Intel Mac OS X 10_15_7) AppleWebKit/537.36 (KHTML, like Gecko) Chrome/133.0.0.0 Safari/537.36" version="26.0.12">
  <diagram name="第 1 页" id="3k2r199kRHwKmQRDiMkg">
    <mxGraphModel dx="1156" dy="765" grid="1" gridSize="10" guides="1" tooltips="1" connect="1" arrows="1" fold="1" page="1" pageScale="1" pageWidth="827" pageHeight="1169" math="0" shadow="0">
      <root>
        <mxCell id="0" />
        <mxCell id="1" parent="0" />
        <mxCell id="ETIKergB1V1dtRU7FjUQ-2" value="IP_B_TAOBAO_REFUND" style="swimlane;fontStyle=0;childLayout=stackLayout;horizontal=1;startSize=30;horizontalStack=0;resizeParent=1;resizeParentMax=0;resizeLast=0;collapsible=1;marginBottom=0;whiteSpace=wrap;html=1;" vertex="1" parent="1">
          <mxGeometry x="40" y="240" width="190" height="120" as="geometry" />
        </mxCell>
        <mxCell id="ETIKergB1V1dtRU7FjUQ-3" value="refund_id" style="text;strokeColor=none;fillColor=none;align=left;verticalAlign=middle;spacingLeft=4;spacingRight=4;overflow=hidden;points=[[0,0.5],[1,0.5]];portConstraint=eastwest;rotatable=0;whiteSpace=wrap;html=1;" vertex="1" parent="ETIKergB1V1dtRU7FjUQ-2">
          <mxGeometry y="30" width="190" height="30" as="geometry" />
        </mxCell>
        <mxCell id="ETIKergB1V1dtRU7FjUQ-4" value="oid" style="text;strokeColor=none;fillColor=none;align=left;verticalAlign=middle;spacingLeft=4;spacingRight=4;overflow=hidden;points=[[0,0.5],[1,0.5]];portConstraint=eastwest;rotatable=0;whiteSpace=wrap;html=1;" vertex="1" parent="ETIKergB1V1dtRU7FjUQ-2">
          <mxGeometry y="60" width="190" height="30" as="geometry" />
        </mxCell>
        <mxCell id="ETIKergB1V1dtRU7FjUQ-5" value="Item 3" style="text;strokeColor=none;fillColor=none;align=left;verticalAlign=middle;spacingLeft=4;spacingRight=4;overflow=hidden;points=[[0,0.5],[1,0.5]];portConstraint=eastwest;rotatable=0;whiteSpace=wrap;html=1;" vertex="1" parent="ETIKergB1V1dtRU7FjUQ-2">
          <mxGeometry y="90" width="190" height="30" as="geometry" />
        </mxCell>
        <mxCell id="ETIKergB1V1dtRU7FjUQ-6" value="oc_b_order_item" style="swimlane;fontStyle=0;childLayout=stackLayout;horizontal=1;startSize=30;horizontalStack=0;resizeParent=1;resizeParentMax=0;resizeLast=0;collapsible=1;marginBottom=0;whiteSpace=wrap;html=1;" vertex="1" parent="1">
          <mxGeometry x="290" y="240" width="190" height="120" as="geometry" />
        </mxCell>
        <mxCell id="ETIKergB1V1dtRU7FjUQ-7" value="oc_b_order_id" style="text;strokeColor=none;fillColor=none;align=left;verticalAlign=middle;spacingLeft=4;spacingRight=4;overflow=hidden;points=[[0,0.5],[1,0.5]];portConstraint=eastwest;rotatable=0;whiteSpace=wrap;html=1;" vertex="1" parent="ETIKergB1V1dtRU7FjUQ-6">
          <mxGeometry y="30" width="190" height="30" as="geometry" />
        </mxCell>
        <mxCell id="ETIKergB1V1dtRU7FjUQ-8" value="ooid" style="text;strokeColor=none;fillColor=none;align=left;verticalAlign=middle;spacingLeft=4;spacingRight=4;overflow=hidden;points=[[0,0.5],[1,0.5]];portConstraint=eastwest;rotatable=0;whiteSpace=wrap;html=1;" vertex="1" parent="ETIKergB1V1dtRU7FjUQ-6">
          <mxGeometry y="60" width="190" height="30" as="geometry" />
        </mxCell>
        <mxCell id="ETIKergB1V1dtRU7FjUQ-9" value="Item 3" style="text;strokeColor=none;fillColor=none;align=left;verticalAlign=middle;spacingLeft=4;spacingRight=4;overflow=hidden;points=[[0,0.5],[1,0.5]];portConstraint=eastwest;rotatable=0;whiteSpace=wrap;html=1;" vertex="1" parent="ETIKergB1V1dtRU7FjUQ-6">
          <mxGeometry y="90" width="190" height="30" as="geometry" />
        </mxCell>
        <mxCell id="ETIKergB1V1dtRU7FjUQ-10" style="edgeStyle=orthogonalEdgeStyle;rounded=0;orthogonalLoop=1;jettySize=auto;html=1;exitX=1;exitY=0.5;exitDx=0;exitDy=0;entryX=0;entryY=0.5;entryDx=0;entryDy=0;" edge="1" parent="1" source="ETIKergB1V1dtRU7FjUQ-4" target="ETIKergB1V1dtRU7FjUQ-8">
          <mxGeometry relative="1" as="geometry" />
        </mxCell>
        <mxCell id="ETIKergB1V1dtRU7FjUQ-11" value="一条记录" style="text;html=1;align=center;verticalAlign=middle;resizable=0;points=[];autosize=1;strokeColor=none;fillColor=none;" vertex="1" parent="1">
          <mxGeometry x="65" y="378" width="70" height="30" as="geometry" />
        </mxCell>
        <mxCell id="ETIKergB1V1dtRU7FjUQ-12" value="多条记录" style="text;html=1;align=center;verticalAlign=middle;resizable=0;points=[];autosize=1;strokeColor=none;fillColor=none;" vertex="1" parent="1">
          <mxGeometry x="310" y="390" width="70" height="30" as="geometry" />
        </mxCell>
        <mxCell id="ETIKergB1V1dtRU7FjUQ-13" value="" style="shape=curlyBracket;whiteSpace=wrap;html=1;rounded=1;labelPosition=left;verticalLabelPosition=middle;align=right;verticalAlign=middle;" vertex="1" parent="1">
          <mxGeometry x="375" y="370" width="20" height="70" as="geometry" />
        </mxCell>
        <mxCell id="ETIKergB1V1dtRU7FjUQ-15" value="改品之前的明细" style="text;html=1;align=center;verticalAlign=middle;whiteSpace=wrap;rounded=0;" vertex="1" parent="1">
          <mxGeometry x="384" y="370" width="96" height="30" as="geometry" />
        </mxCell>
        <mxCell id="ETIKergB1V1dtRU7FjUQ-16" value="改品之后的明细" style="text;html=1;align=center;verticalAlign=middle;whiteSpace=wrap;rounded=0;" vertex="1" parent="1">
          <mxGeometry x="384" y="400" width="96" height="30" as="geometry" />
        </mxCell>
        <mxCell id="ETIKergB1V1dtRU7FjUQ-18" value="改品逻辑会生成ooid相同的一条明细" style="text;html=1;align=center;verticalAlign=middle;whiteSpace=wrap;rounded=0;" vertex="1" parent="1">
          <mxGeometry x="322" y="450" width="126" height="20" as="geometry" />
        </mxCell>
        <mxCell id="ETIKergB1V1dtRU7FjUQ-19" value="排除掉赠品和退款成功的明细" style="rounded=0;whiteSpace=wrap;html=1;fillColor=default;" vertex="1" parent="1">
          <mxGeometry x="850" y="285" width="120" height="60" as="geometry" />
        </mxCell>
        <mxCell id="ETIKergB1V1dtRU7FjUQ-20" style="edgeStyle=orthogonalEdgeStyle;rounded=0;orthogonalLoop=1;jettySize=auto;html=1;exitX=1;exitY=0.5;exitDx=0;exitDy=0;entryX=0;entryY=0.5;entryDx=0;entryDy=0;dashed=1;" edge="1" parent="1" source="ETIKergB1V1dtRU7FjUQ-8" target="ETIKergB1V1dtRU7FjUQ-19">
          <mxGeometry relative="1" as="geometry" />
        </mxCell>
        <mxCell id="ETIKergB1V1dtRU7FjUQ-21" value="这里会设置退款成功标志" style="rounded=0;whiteSpace=wrap;html=1;fillColor=#f8cecc;strokeColor=#b85450;" vertex="1" parent="1">
          <mxGeometry x="590" y="285" width="100" height="55" as="geometry" />
        </mxCell>
        <mxCell id="ETIKergB1V1dtRU7FjUQ-22" value="淘宝退单中间表" style="text;html=1;align=center;verticalAlign=middle;resizable=0;points=[];autosize=1;strokeColor=none;fillColor=none;" vertex="1" parent="1">
          <mxGeometry x="80" y="188" width="110" height="30" as="geometry" />
        </mxCell>
        <mxCell id="ETIKergB1V1dtRU7FjUQ-23" value="订单明细表" style="text;html=1;align=center;verticalAlign=middle;resizable=0;points=[];autosize=1;strokeColor=none;fillColor=none;" vertex="1" parent="1">
          <mxGeometry x="334" y="188" width="80" height="30" as="geometry" />
        </mxCell>
        <mxCell id="ETIKergB1V1dtRU7FjUQ-24" value="EDCN-5895&#xa;&#xa;优化退款成功再次转换" style="text;align=center;verticalAlign=middle;resizable=0;points=[];autosize=1;strokeColor=none;fillColor=none;" vertex="1" parent="1">
          <mxGeometry x="570" y="170" width="140" height="60" as="geometry" />
        </mxCell>
      </root>
    </mxGraphModel>
  </diagram>
</mxfile>
